<?xml version="1.0" standalone="no"?><!DOCTYPE svg PUBLIC "-//W3C//DTD SVG 1.1//EN" "http://www.w3.org/Graphics/SVG/1.1/DTD/svg11.dtd"><svg t="1718869840720" class="icon" viewBox="0 0 1024 1024" version="1.1" xmlns="http://www.w3.org/2000/svg" p-id="22155" xmlns:xlink="http://www.w3.org/1999/xlink" width="200" height="200"><path d="M894.130816 280.13696C894.130816 280.13696 894.61488 268.48384 880.673728 256.25312 853.37232 232.27296 806.998624 192.40224 792.86384 178.53408 784.925152 170.73344 766.627392 166.20704 754.428864 178.72672 742.811264 190.6688 747.845568 206.2704 756.461952 214.26368 768.66048 225.62784 796.25232 248.06688 811.936128 264.92064 798.866304 280.61856 777.276864 297.18304 763.819776 311.72512 762.077152 313.55488 762.173952 315.67392 762.173952 316.6368 762.270784 324.91904 762.561216 330.6976 762.464384 334.16448 762.367584 337.2464 766.046496 338.3056 767.69232 338.3056L835.945888 338.3056C840.496096 338.3056 841.657888 342.832 841.657888 342.832L841.657888 771.77856C841.657888 795.75872 828.2976 803.2704 814.646912 803.2704 800.996192 803.2704 786.377344 795.6624 786.377344 771.77856L786.377344 421.03232C786.377344 389.25152 782.795232 374.80544 746.006112 372.87936 737.002432 372.39808 700.890976 372.78304 681.237856 372.87936L681.237856 149.3536C681.237856 119.88384 656.744 96 626.538176 96L204.431168 96C174.225344 96 149.73152 119.88384 149.73152 149.3536L149.73152 866.25472 118.460736 866.25472C105.971808 866.25472 96 876.07776 96 888.21248L96 920.5712C96 932.7056 106.068608 943.58816 118.460736 943.58816L711.443648 943.58816C723.835808 943.58816 733.904416 932.7056 733.904416 920.5712L733.904416 888.21248C733.904416 876.07776 723.835808 866.25472 711.443648 866.25472L681.141024 866.25472 681.141024 424.49952 718.801504 424.49952C732.25856 424.49952 733.420352 437.5008 733.420352 437.5008L733.420352 775.14912C733.420352 861.34304 806.41776 862.1136 814.55008 862.1136 825.490016 862.1136 894.033984 862.1136 894.033984 776.20864L894.033984 280.13696 894.130816 280.13696M583.262528 415.63936C583.262528 435.28576 566.901056 451.17632 546.76384 451.17632L282.656512 451.17632C262.519296 451.17632 246.254624 435.28576 246.254624 415.63936L246.254624 227.26496C246.254624 207.61856 262.616096 191.63168 282.656512 191.63168L546.86064 191.63168C566.997856 191.63168 583.35936 207.52224 583.35936 227.26496L583.35936 415.63936 583.262528 415.63936" fill="#cdcdcd" p-id="22156"></path></svg>