<?xml version="1.0" standalone="no"?><!DOCTYPE svg PUBLIC "-//W3C//DTD SVG 1.1//EN" "http://www.w3.org/Graphics/SVG/1.1/DTD/svg11.dtd"><svg t="1718851107045" class="icon" viewBox="0 0 1024 1024" version="1.1" xmlns="http://www.w3.org/2000/svg" p-id="15788" xmlns:xlink="http://www.w3.org/1999/xlink" width="200" height="200"><path d="M550.229333 287.323287a284.100465 284.100465 0 0 0-284.100465 284.100465c0 65.591566 22.226357 127.563411 62.257613 177.493333l7.239441 8.660341 43.396962 50.009303-47.969241 47.937488h218.215194l8.954047-0.111132c155.370171-4.25476 278.480372-132.572279 276.289488-287.990077-2.182946-155.40986-128.849364-280.210853-284.283039-280.099721z" fill="#cdcdcd" p-id="15789"></path><path d="M394.144744 589.355659c27.362233 46.516589 77.014326 78.189147 134.866357 78.189147a155.592434 155.592434 0 0 0 130.421085-70.965581l4.461147-7.223566h65.281985a214.825674 214.825674 0 0 1-396.923039 8.207876l-3.397457-8.207876h65.289922z" p-id="15790" fill="#cdcdcd"></path><path d="M234.781767 770.429023l-131.849922 133.937613h427.174698c216.762543 0 392.747659-175.985116 392.747659-392.747659 0-216.762543-175.985116-392.747659-392.747659-392.747659-216.762543 0-392.747659 175.985116-392.747659 392.747659 0 99.105736 36.78462 189.686078 97.422883 258.810046z m66.79814 22.670884l22.44862-22.805829-22.980465-22.273985c-61.757519-59.852403-100.185302-143.677519-100.185302-236.401116 0-181.716341 147.53538-329.243783 329.243783-329.243783 181.716341 0 329.243783 147.527442 329.243783 329.243783 0 181.716341-147.527442 329.243783-329.243783 329.243783H254.563225l47.016682-47.762853z" fill="#cdcdcd" p-id="15791"></path></svg>