<?xml version="1.0" standalone="no"?><!DOCTYPE svg PUBLIC "-//W3C//DTD SVG 1.1//EN" "http://www.w3.org/Graphics/SVG/1.1/DTD/svg11.dtd"><svg t="1718870026882" class="icon" viewBox="0 0 1024 1024" version="1.1" xmlns="http://www.w3.org/2000/svg" p-id="23212" xmlns:xlink="http://www.w3.org/1999/xlink" width="200" height="200"><path d="M971.851852 303.407407h-94.814815a9.481481 9.481481 0 0 0-7.016296 2.275556l-84.290371 73.860741a9.481481 9.481481 0 0 0-1.611851 2.18074c-195.982222-28.444444-322.37037-20.195556-323.508149-20.10074h-1.327407a422.21037 422.21037 0 0 0-177.682963 86.565926c-183.466667-8.533333-229.831111 72.817778-231.727407 75.851851a9.481481 9.481481 0 0 0-0.853334 2.180741c-0.568889 2.275556-13.748148 55.182222 0 98.322963a8.628148 8.628148 0 0 0 0 1.896296 12.98963 12.98963 0 0 0 4.266667 5.404445l1.706667 1.042963a166.874074 166.874074 0 0 0 78.885926 28.444444A89.6 89.6 0 0 0 304.071111 654.222222h316.302222a89.6 89.6 0 0 0 172.752593 0c36.598519-8.533333 61.534815-23.703704 74.05037-45.131852 16.118519-27.685926 6.637037-56.888889 3.128889-67.982222l-0.663704-1.991111v-0.758518c0-3.697778-1.611852-39.253333-0.948148-59.25926 0.853333-25.78963-53.854815-76.515556-67.413333-87.798518L879.597037 322.37037h92.254815a9.481481 9.481481 0 0 0 0-18.962963zM218.074074 701.62963a70.731852 70.731852 0 1 1 70.731852-70.731852A70.826667 70.826667 0 0 1 218.074074 701.62963z m488.96 0A70.731852 70.731852 0 1 1 777.481481 630.518519a70.826667 70.826667 0 0 1-70.826666 71.111111z m113.777778-265.481482c23.514074 25.41037 29.487407 39.063704 29.392592 42.666667a350.814815 350.814815 0 0 0 0.948149 60.776296 25.694815 25.694815 0 0 0 1.611851 7.585185c3.128889 9.481481 10.42963 32.331852-1.422222 52.717037-9.007407 15.454815-27.306667 26.927407-54.518518 34.417778v-3.602963a89.694815 89.694815 0 1 0-179.38963 0v5.12H307.2v-5.12a89.694815 89.694815 0 1 0-178.251852 11.851852 152.557037 152.557037 0 0 1-61.819259-22.755556c-11.188148-34.512593-1.991111-78.696296 0-86.66074 5.404444-8.533333 53.096296-73.955556 217.315555-65.327408a9.481481 9.481481 0 0 0 6.921482-2.465185 406.186667 406.186667 0 0 1 171.140741-84.48c9.481481-0.663704 132.740741-7.49037 320 20.195556A262.542222 262.542222 0 0 1 820.148148 436.148148z" fill="#cdcdcd" p-id="23213"></path></svg>