<?xml version="1.0" standalone="no"?><!DOCTYPE svg PUBLIC "-//W3C//DTD SVG 1.1//EN" "http://www.w3.org/Graphics/SVG/1.1/DTD/svg11.dtd"><svg t="1718850850501" class="icon" viewBox="0 0 1024 1024" version="1.1" xmlns="http://www.w3.org/2000/svg" p-id="9999" xmlns:xlink="http://www.w3.org/1999/xlink" width="200" height="200"><path d="M512 998.536533c269.550933 0 488.004267-218.4192 488.004267-488.004266S781.585067 22.186667 512 22.186667C242.4832 22.186667 24.029867 240.605867 24.029867 510.190933c0 269.9264 218.4192 488.3456 487.970133 488.3456z m410.999467-414.071466a434.264747 434.264747 0 0 1-115.541334 226.304 414.344533 414.344533 0 0 1-208.896 116.872533c4.096-41.915733 8.840533-99.84 16.6912-149.265067 21.128533-136.2944 63.726933-195.618133 182.6816-218.4192 33.3824-6.485333 68.5056-6.826667 103.594667-5.802666 17.373867-0.682667 27.272533 6.826667 21.469867 30.3104zM114.9952 370.141867a434.394453 434.394453 0 0 1 101.205333-168.3456C292.5568 123.0848 402.295467 83.8656 512 83.8656c109.738667 0 219.477333 39.185067 295.458133 117.896533a434.394453 434.394453 0 0 1 101.205334 168.3456c5.802667 21.469867-2.048 31.709867-22.8352 30.651734-68.846933-2.730667-217.053867-4.778667-247.3984-6.4512a175.8208 175.8208 0 0 1 41.915733 114.4832c0 48.059733-18.7392 91.3408-49.390933 122.709333a166.2464 166.2464 0 0 1-36.795734 28.603733 165.00736 165.00736 0 0 1-82.158933 22.152534 166.877867 166.877867 0 0 1-119.261867-50.756267 175.79008 175.79008 0 0 1-49.390933-122.709333 176.186027 176.186027 0 0 1 41.915733-114.4832c-30.344533 1.706667-178.551467 3.754667-247.3984 6.485333-20.821333 1.024-28.296533-9.216-22.869333-30.651733z m7.509333 184.0128c35.089067-0.682667 70.212267-0.682667 103.594667 5.802666 118.920533 23.176533 161.518933 82.466133 182.6816 218.4192 7.509333 49.425067 12.5952 107.349333 16.6912 149.265067-80.759467-17.373867-152.6784-58.948267-208.896-116.872533a434.51392 434.51392 0 0 1-115.541333-226.304c-5.802667-23.483733 4.096-30.993067 21.469866-30.3104z m0 0" p-id="10000" fill="#cdcdcd"></path><path d="M412.330667 611.84c9.864533 10.205867 21.128533 18.7392 33.3824 25.565867a138.728107 138.728107 0 0 0 132.608 0c12.253867-6.826667 23.483733-15.36 33.3824-25.565867a147.019093 147.019093 0 0 0 41.233066-102.912c0-40.209067-15.6672-76.322133-41.233066-102.570667-51.438933-53.179733-147.899733-53.179733-199.338667 0a146.807467 146.807467 0 0 0-41.233067 102.570667c-0.034133 40.174933 15.633067 76.663467 41.198934 102.912z m77.7216-158.481067c14.199467-5.802667 30.1056-5.802667 44.305066 0 21.128533 8.840533 36.113067 30.344533 36.113067 55.534934 0.1024 22.664533-12.526933 43.485867-32.699733 53.8624-16.0768 8.192-35.054933 8.192-51.131734 0a60.32384 60.32384 0 0 1-32.733866-53.8624c0-25.1904 14.984533-46.318933 36.1472-55.534934z m0 0" p-id="10001" fill="#cdcdcd"></path></svg>