<?xml version="1.0" standalone="no"?><!DOCTYPE svg PUBLIC "-//W3C//DTD SVG 1.1//EN" "http://www.w3.org/Graphics/SVG/1.1/DTD/svg11.dtd"><svg t="1718870101590" class="icon" viewBox="0 0 1024 1024" version="1.1" xmlns="http://www.w3.org/2000/svg" p-id="24315" xmlns:xlink="http://www.w3.org/1999/xlink" width="200" height="200"><path d="M776.223 480.204c-11.877-15.101-28.88-23.762-46.65-23.762H346.132V339.15c0-92.489 75.345-167.733 167.954-167.733 92.673 0 168.067 75.246 168.067 167.733v41.668h46.829v-41.668c0-57.358-22.356-111.258-62.952-151.771-40.574-40.496-94.535-62.794-151.945-62.794-118.432 0-214.785 96.254-214.785 214.563v117.292h-0.4c-17.756 0-34.774 8.643-46.692 23.712-10.846 13.713-16.819 31.699-16.819 50.642v281.137c0 41.014 28.491 74.382 63.513 74.382h430.672c34.93 0 63.346-33.366 63.346-74.382V530.795c0-18.933-5.93-36.901-16.694-50.594z m-30.134 331.73c0 15.516-8.88 27.553-16.518 27.553h-430.67c-7.715 0-16.682-12.036-16.682-27.553V530.798c0-15.753 8.807-27.526 16.682-27.526h430.672c7.796 0 16.517 11.773 16.517 27.526v281.136z" fill="#cdcdcd" p-id="24316"></path></svg>