<?xml version="1.0" standalone="no"?><!DOCTYPE svg PUBLIC "-//W3C//DTD SVG 1.1//EN" "http://www.w3.org/Graphics/SVG/1.1/DTD/svg11.dtd"><svg t="1718850912237" class="icon" viewBox="0 0 1024 1024" version="1.1" xmlns="http://www.w3.org/2000/svg" p-id="11136" xmlns:xlink="http://www.w3.org/1999/xlink" width="200" height="200"><path d="M512 51.2a460.8 460.8 0 1 0 0 921.6 460.8 460.8 0 0 0 0-921.6z m0 891.5968a430.7968 430.7968 0 1 1 0-861.5936 430.7968 430.7968 0 0 1 0 861.5936z" fill="#cdcdcd" p-id="11137"></path><path d="M711.7312 325.7344h-269.312L386.304 471.3984H271.4624l-43.776 151.8592h80.3328c0 41.472 34.4576 75.008 76.9024 75.008 42.496 0 76.9536-33.5872 76.9536-75.008h96.3072c0 41.472 34.4576 75.008 76.9024 75.008 42.496 0 76.9536-33.5872 76.9536-75.008h64.6656l-64.9728-297.5232z m-23.04 274.1248c0 36.5056-15.6672 68.4032-53.8624 68.4032s-50.7904-32.8704-50.7904-69.376l-150.3744 0.9728c0 36.5056-11.2128 68.4032-44.6976 68.4032-38.2464 0-56.4224-32.8704-56.4224-69.376l-64.8192 0.256 28.0576-102.4h111.36l52.6336-143.36h228.608l56.1152 245.4528-55.808 1.024z" fill="#cdcdcd" p-id="11138"></path></svg>