<?xml version="1.0" standalone="no"?><!DOCTYPE svg PUBLIC "-//W3C//DTD SVG 1.1//EN" "http://www.w3.org/Graphics/SVG/1.1/DTD/svg11.dtd"><svg t="1718870211766" class="icon" viewBox="0 0 1024 1024" version="1.1" xmlns="http://www.w3.org/2000/svg" p-id="26754" xmlns:xlink="http://www.w3.org/1999/xlink" width="200" height="200"><path d="M972.8 119.466667H534.186667c-59.733333 0-117.76 17.066667-167.253334 47.786666L138.24 307.2C52.906667 360.106667 0 453.973333 0 554.666667V853.333333c0 29.013333 22.186667 51.2 51.2 51.2h921.6c29.013333 0 51.2-22.186667 51.2-51.2V170.666667c0-29.013333-22.186667-51.2-51.2-51.2zM779.946667 634.88l-134.826667 172.373333c-6.826667 8.533333-20.48 8.533333-27.306667 0l-134.826666-172.373333a17.066667 17.066667 0 0 1 13.653333-27.306667H768c13.653333-1.706667 20.48 15.36 11.946667 27.306667zM969.386667 494.933333c0 18.773333-15.36 34.133333-34.133334 34.133334H122.88c-18.773333 0-34.133333-15.36-34.133333-34.133334v-44.373333c0-34.133333 17.066667-66.56 46.08-83.626667L375.466667 220.16C428.373333 187.733333 488.106667 170.666667 549.546667 170.666667h385.706666c18.773333 0 34.133333 15.36 34.133334 34.133333v290.133333z" fill="#cdcdcd" p-id="26755"></path><path d="M617.813333 252.586667l-134.826666 172.373333a17.066667 17.066667 0 0 0 13.653333 27.306667H768c13.653333 0 22.186667-17.066667 13.653333-27.306667l-134.826666-172.373333c-8.533333-10.24-22.186667-10.24-29.013334 0z" fill="#cdcdcd" p-id="26756"></path></svg>