<?xml version="1.0" standalone="no"?><!DOCTYPE svg PUBLIC "-//W3C//DTD SVG 1.1//EN" "http://www.w3.org/Graphics/SVG/1.1/DTD/svg11.dtd"><svg t="1718870137286" class="icon" viewBox="0 0 1024 1024" version="1.1" xmlns="http://www.w3.org/2000/svg" p-id="25562" xmlns:xlink="http://www.w3.org/1999/xlink" width="200" height="200"><path d="M289.258667 693.162667C158.08 659.008 128 611.669333 128.042667 506.709333L128 389.141333a154.453333 154.453333 0 0 1 150.869333-154.453333l3.541334-0.042667H617.386667c20.266667 0 75.2-0.746667 124.096 20.458667 48.874667 21.184 93.290667 76.117333 68.288 195.562667-52.608 289.962667 105.173333 187.669333 105.173333 255.914666-9.386667 55.829333-32.384 76.544-75.029333 76.544-4.842667 0-9.685333-0.448-14.442667-1.365333l-50.837333-7.616-485.354667-81.002667z m376.170666-415.552H279.146667a108.010667 108.010667 0 0 0-107.989334 108.032v151.637333a108.010667 108.010667 0 0 0 88.576 106.282667l362.666667 62.08a107.989333 107.989333 0 0 0 126.506667-92.373334l23.616-213.76a108.032 108.032 0 0 0-107.093334-121.898666z" p-id="25563" fill="#cdcdcd"></path><path d="M710.997333 587.370667c-86.869333 0-160.96-21.632-220.330666-64.277334L514.986667 490.666667c52.245333 37.269333 118.144 56.170667 196.010666 56.170666 77.866667 0 143.765333-18.901333 196.010667-56.170666l24.341333 32.426666c-59.370667 42.645333-133.461333 64.277333-220.352 64.277334" p-id="25564" fill="#cdcdcd"></path><path d="M840.704 455.445333l100.693333 29.653334a17.066667 17.066667 0 0 1 11.52 21.162666l-34.922666 103.253334-30.293334-10.304L918.144 512l-87.36-26.133333 9.898667-30.421334zM519.104 614.506667l-40.32-96.917334a17.066667 17.066667 0 0 1 9.173333-22.314666l102.229334-37.802667 11.093333 30.037333-86.976 31.189334 34.666667 84.330666-29.866667 11.477334z" p-id="25565" fill="#cdcdcd"></path></svg>