<?xml version="1.0" standalone="no"?><!DOCTYPE svg PUBLIC "-//W3C//DTD SVG 1.1//EN" "http://www.w3.org/Graphics/SVG/1.1/DTD/svg11.dtd"><svg t="1718850787434" class="icon" viewBox="0 0 1024 1024" version="1.1" xmlns="http://www.w3.org/2000/svg" p-id="8760" xmlns:xlink="http://www.w3.org/1999/xlink" width="200" height="200"><path d="M731.477333 128c38.016 0 71.765333 26.026667 83.669334 64.64l61.44 210.816h50.474666c29.994667 0 54.272 24.32 54.272 54.272 0 32.426667-20.736 61.184-51.498666 71.466667l-31.146667 10.368v261.76c0 52.309333-39.637333 94.677333-88.576 94.677333-48.896 0-88.576-42.368-88.576-94.677333v-16.213334H308.053333v16.213334c0 52.309333-39.68 94.677333-88.576 94.677333-48.938667 0-88.576-42.368-88.576-94.677333v-257.962667l-37.12-13.226667A76.885333 76.885333 0 0 1 42.666667 457.770667c0-29.952 24.32-54.272 54.272-54.272h56.149333l61.397333-210.773334C226.432 154.026667 260.138667 128 298.154667 128h433.322666zM276.906667 554.666667a64.042667 64.042667 0 1 0-0.085334 128.085333A64.042667 64.042667 0 0 0 276.906667 554.666667z m469.973333 0a64.042667 64.042667 0 1 0-0.085333 128.085333A64.042667 64.042667 0 0 0 746.88 554.666667z m-39.125333-358.826667H317.952a42.666667 42.666667 0 0 0-41.813333 33.962667l-30.165334 145.493333A42.666667 42.666667 0 0 0 287.744 426.666667h451.541333a42.666667 42.666667 0 0 0 41.728-51.712l-31.573333-145.493334a42.666667 42.666667 0 0 0-41.685333-33.664z" fill="#cdcdcd" p-id="8761"></path></svg>