<?xml version="1.0" standalone="no"?><!DOCTYPE svg PUBLIC "-//W3C//DTD SVG 1.1//EN" "http://www.w3.org/Graphics/SVG/1.1/DTD/svg11.dtd"><svg t="1718869542375" class="icon" viewBox="0 0 1024 1024" version="1.1" xmlns="http://www.w3.org/2000/svg" p-id="21134" xmlns:xlink="http://www.w3.org/1999/xlink" width="200" height="200"><path d="M721.454545 0A69.818182 69.818182 0 0 1 791.272727 69.818182V186.181818h139.636364a46.545455 46.545455 0 0 1 46.545454 46.545455v279.272727a279.272727 279.272727 0 0 1-279.272727 279.272727h-93.090909v139.636364a93.090909 93.090909 0 1 1-186.181818 0v-139.636364H325.818182a279.272727 279.272727 0 0 1-279.272727-279.272727V232.727273a46.545455 46.545455 0 0 1 46.545454-46.545455h139.636364V69.818182a69.818182 69.818182 0 0 1 139.636363 0V186.181818h279.272728V69.818182A69.818182 69.818182 0 0 1 721.454545 0zM558.545455 279.272727l-162.909091 213.829818h91.787636L465.454545 651.636364l162.909091-213.829819h-91.787636L558.545455 279.272727z" p-id="21135" fill="#cdcdcd"></path></svg>